# xmcd CD database file
#
# Track frame offsets:
#	150
#	11379
#	23928
#	42635
#	60886
#	74372
#	96692
#	113383
#	132164
#	147958
#	172405
#
# Disc length: 2514 seconds
#
# Revision: 1
# Processed by: cddbd v1.5.1PL0 Copyright (c) Steve Scherf et al.
# Submitted via: CDex 1.51
#
DISCID=9a09d00b
DTITLE=Ian Tyson - Cowboyography
DYEAR=1989
DGENRE=Country
TTITLE0=Springtime
TTITLE1=Navajo Rug
TTITLE2=Summer Wages
TTITLE3=Fifty Years Ago
TTITLE4=Rockies Turn Rose
TTITLE5=Claude Dallas
TTITLE6=Own Heart's Delight
TTITLE7=The Gift
TTITLE8=Cowboy Pride
TTITLE9=Old Cheyenne
TTITLE10=The Coyote and The Cowboy
EXTD=YEAR: 1989
EXTT0=
EXTT1=
EXTT2=
EXTT3=
EXTT4=
EXTT5=
EXTT6=
EXTT7=
EXTT8=
EXTT9=
EXTT10=
PLAYORDER=
